HIERARCHY
ROOT Hips
{
  OFFSET -2.9740628571428576 95.22824285714285 -3.405862857142857
  CHANNELS 6 Xposition Zposition Yposition Zrotation Xrotation Yrotation
  JOINT LeftUpLeg
  {
    OFFSET 8.64259 1.9539799999999998 -2.3883499999999995
    CHANNELS 3 Zrotation Xrotation Yrotation
    JOINT LeftLeg
    {
      OFFSET 43.770199999999996 0.0 0.0
      CHANNELS 3 Zrotation Xrotation Yrotation
      JOINT LeftFoot
      {
        OFFSET 40.62380000000001 0.0 0.0
        CHANNELS 3 Zrotation Xrotation Yrotation
        JOINT LeftToeBase
        {
          OFFSET 12.724199999999998 0.0 0.0
          CHANNELS 3 Zrotation Xrotation Yrotation
          End Site
          {
            OFFSET 0.0 0.0 0.0
          }
        }
      }
    }
  }
  JOINT RightUpLeg
  {
    OFFSET -8.2249 1.9539799999999998 -2.59336
    CHANNELS 3 Zrotation Xrotation Yrotation
    JOINT RightLeg
    {
      OFFSET 43.56529999999999 0.0 0.0
      CHANNELS 3 Zrotation Xrotation Yrotation
      JOINT RightFoot
      {
        OFFSET 40.62380000000001 0.0 0.0
        CHANNELS 3 Zrotation Xrotation Yrotation
        JOINT RightToeBase
        {
          OFFSET 12.724199999999998 0.0 0.0
          CHANNELS 3 Zrotation Xrotation Yrotation
          End Site
          {
            OFFSET 0.0 0.0 0.0
          }
        }
      }
    }
  }
  JOINT Spine
  {
    OFFSET 0.16583 0.8771399999999999 6.61349
    CHANNELS 3 Zrotation Xrotation Yrotation
    JOINT Spine1
    {
      OFFSET 7.389628571428571 2e-05 0.0
      CHANNELS 3 Zrotation Xrotation Yrotation
      JOINT Spine2
      {
        OFFSET 11.944500000000001 1e-05 0.0
        CHANNELS 3 Zrotation Xrotation Yrotation
        JOINT Spine3
        {
          OFFSET 14.725400000000004 4e-05 0.0
          CHANNELS 3 Zrotation Xrotation Yrotation
          JOINT Spine4
          {
            OFFSET 10.9679 0.0 0.0
            CHANNELS 3 Zrotation Xrotation Yrotation
            JOINT RightShoulder
            {
              OFFSET 2.46616 -1.6653 3.69651
              CHANNELS 3 Zrotation Xrotation Yrotation
              JOINT RightArm
              {
                OFFSET 13.001199999999999 0.0 0.0
                CHANNELS 3 Zrotation Xrotation Yrotation
                JOINT RightForeArm
                {
                  OFFSET 28.784799999999997 2e-05 0.0
                  CHANNELS 3 Zrotation Xrotation Yrotation
                  JOINT RightHand
                  {
                    OFFSET 26.568800000000003 2e-05 0.0
                    CHANNELS 3 Zrotation Xrotation Yrotation
                    JOINT RightHandMiddle1
                    {
                      OFFSET 8.03675 -0.8865800000000001 0.7278700000000001
                      CHANNELS 3 Zrotation Xrotation Yrotation
                      JOINT RightHandMiddle2
                      {
                        OFFSET 2.7883299999999993 0.0 0.0
                        CHANNELS 3 Zrotation Xrotation Yrotation
                        JOINT RightHandMiddle3
                        {
                          OFFSET 2.4115500000000005 0.0 0.0
                          CHANNELS 3 Zrotation Xrotation Yrotation
                          End Site
                          {
                            OFFSET 0.0 0.0 0.0
                          }
                        }
                      }
                    }
                    JOINT RightHandRing1
                    {
                      OFFSET 7.979660000000002 -0.8867700000000002 -1.00486
                      CHANNELS 3 Zrotation Xrotation Yrotation
                      JOINT RightHandRing2
                      {
                        OFFSET 2.8636799999999996 0.0 0.0
                        CHANNELS 3 Zrotation Xrotation Yrotation
                        JOINT RightHandRing3
                        {
                          OFFSET 2.11079 0.0 0.0
                          CHANNELS 3 Zrotation Xrotation Yrotation
                          End Site
                          {
                            OFFSET 0.0 0.0 0.0
                          }
                        }
                      }
                    }
                    JOINT RightHandPinky1
                    {
                      OFFSET 8.03707 -0.8875299999999999 -2.6069600000000004
                      CHANNELS 3 Zrotation Xrotation Yrotation
                      JOINT RightHandPinky2
                      {
                        OFFSET 1.8462757142857142 0.0 0.0
                        CHANNELS 3 Zrotation Xrotation Yrotation
                        JOINT RightHandPinky3
                        {
                          OFFSET 1.8843400000000001 0.0 0.0
                          CHANNELS 3 Zrotation Xrotation Yrotation
                          End Site
                          {
                            OFFSET 0.0 0.0 0.0
                          }
                        }
                      }
                    }
                    JOINT RightHandIndex1
                    {
                      OFFSET 7.92262 -0.8855000000000002 2.31175
                      CHANNELS 3 Zrotation Xrotation Yrotation
                      JOINT RightHandIndex2
                      {
                        OFFSET 2.63761 0.0 0.0
                        CHANNELS 3 Zrotation Xrotation Yrotation
                        JOINT RightHandIndex3
                        {
                          OFFSET 2.16656 0.0 0.0
                          CHANNELS 3 Zrotation Xrotation Yrotation
                          End Site
                          {
                            OFFSET 0.0 0.0 0.0
                          }
                        }
                      }
                    }
                    JOINT RightHandThumb1
                    {
                      OFFSET 3.4769 0.059800000000000006 2.8878899999999996
                      CHANNELS 3 Zrotation Xrotation Yrotation
                      JOINT RightHandThumb2
                      {
                        OFFSET 2.7768599999999997 0.00010000000000000002 -2e-05
                        CHANNELS 3 Zrotation Xrotation Yrotation
                        JOINT RightHandThumb3
                        {
                          OFFSET 2.420578571428571 -9e-05 0.0
                          CHANNELS 3 Zrotation Xrotation Yrotation
                          End Site
                          {
                            OFFSET 0.0 0.0 0.0
                          }
                        }
                      }
                    }
                  }
                }
              }
            }
            JOINT LeftShoulder
            {
              OFFSET 2.3803400000000003 -1.29275 -3.7523014285714282
              CHANNELS 3 Zrotation Xrotation Yrotation
              JOINT LeftArm
              {
                OFFSET 16.3182 5.9999999999999995e-05 0.0
                CHANNELS 3 Zrotation Xrotation Yrotation
                JOINT LeftForeArm
                {
                  OFFSET 27.090100000000003 0.0 0.0
                  CHANNELS 3 Zrotation Xrotation Yrotation
                  JOINT LeftHand
                  {
                    OFFSET 24.545099999999998 2e-05 0.0
                    CHANNELS 3 Zrotation Xrotation Yrotation
                    JOINT LeftHandMiddle1
                    {
                      OFFSET 9.218019999999997 0.66582 0.5455300000000002
                      CHANNELS 3 Zrotation Xrotation Yrotation
                      JOINT LeftHandMiddle2
                      {
                        OFFSET 2.66255 0.0 0.0
                        CHANNELS 3 Zrotation Xrotation Yrotation
                        JOINT LeftHandMiddle3
                        {
                          OFFSET 2.2804 0.0 0.0
                          CHANNELS 3 Zrotation Xrotation Yrotation
                          End Site
                          {
                            OFFSET 0.0 0.0 0.0
                          }
                        }
                      }
                    }
                    JOINT LeftHandRing1
                    {
                      OFFSET 9.247749999999998 0.66519 -1.1266999999999998
                      CHANNELS 3 Zrotation Xrotation Yrotation
                      JOINT LeftHandRing2
                      {
                        OFFSET 2.4704099999999998 0.0 -2e-05
                        CHANNELS 3 Zrotation Xrotation Yrotation
                        JOINT LeftHandRing3
                        {
                          OFFSET 2.2054000000000005 0.0 0.0
                          CHANNELS 3 Zrotation Xrotation Yrotation
                          End Site
                          {
                            OFFSET 0.0 0.0 0.0
                          }
                        }
                      }
                    }
                    JOINT LeftHandPinky1
                    {
                      OFFSET 9.35383857142857 0.66301 -2.7233200000000006
                      CHANNELS 3 Zrotation Xrotation Yrotation
                      JOINT LeftHandPinky2
                      {
                        OFFSET 1.63407 0.0 0.0
                        CHANNELS 3 Zrotation Xrotation Yrotation
                        JOINT LeftHandPinky3
                        {
                          OFFSET 1.71176 0.0 0.0
                          CHANNELS 3 Zrotation Xrotation Yrotation
                          End Site
                          {
                            OFFSET 0.0 0.0 0.0
                          }
                        }
                      }
                    }
                    JOINT LeftHandIndex1
                    {
                      OFFSET 8.731608571428572 0.6758999999999998 2.0680099999999997
                      CHANNELS 3 Zrotation Xrotation Yrotation
                      JOINT LeftHandIndex2
                      {
                        OFFSET 2.6668899999999995 0.0 0.0
                        CHANNELS 3 Zrotation Xrotation Yrotation
                        JOINT LeftHandIndex3
                        {
                          OFFSET 2.12946 0.0 2e-05
                          CHANNELS 3 Zrotation Xrotation Yrotation
                          End Site
                          {
                            OFFSET 0.0 0.0 0.0
                          }
                        }
                      }
                    }
                    JOINT LeftHandThumb1
                    {
                      OFFSET 4.967354285714285 -0.62265 3.3958599999999994
                      CHANNELS 3 Zrotation Xrotation Yrotation
                      JOINT LeftHandThumb2
                      {
                        OFFSET 2.15386 2e-05 0.0
                        CHANNELS 3 Zrotation Xrotation Yrotation
                        JOINT LeftHandThumb3
                        {
                          OFFSET 2.1951099999999997 -2.9999999999999997e-05 2e-05
                          CHANNELS 3 Zrotation Xrotation Yrotation
                          End Site
                          {
                            OFFSET 0.0 0.0 0.0
                          }
                        }
                      }
                    }
                  }
                }
              }
            }
            JOINT Neck
            {
              OFFSET 5.0226 -0.026629999999999994 0.0
              CHANNELS 3 Zrotation Xrotation Yrotation
              JOINT Head
              {
                OFFSET 6.693637142857143 2.9999999999999997e-05 0.0
                CHANNELS 3 Zrotation Xrotation Yrotation
                End Site
                {
                  OFFSET 0.0 0.0 0.0
                }
              }
            }
          }
        }
      }
    }
  }
}
MOTION
Frames: 4
Frame Time: 0.03333333
1291.8728483158566 -100.40739263207085 89.42396469911219 123.67830293401501 -24.533344032634055 151.90424583597172 -101.23669704838673 37.50934539610246 132.44526844471528 58.62210318655892 -18.53273434240441 -186.19786143036276 -131.89900547884673 2.9736532940314104 -35.03549367320619 28.780799999999093 4.5005569031784146e-06 5.710002817110988e-06 -123.76728222504303 39.90155106543188 53.41928452824101 -83.93186865363697 -1.8388249127858014 -1.716885649139218 12.1351586459229 17.453573803464586 61.36605624671716 28.780797091675833 1.4105165100752048e-05 2.4334205762168454e-05 4.2098756488653075 9.183338234287325 -101.98210966680827 8.164086465286534 1.6059158900879795 -15.899573792878913 -3.610975378594275 1.0662513946111676 -16.01223684300077 -25.777843795119693 6.652856599746884 -14.80451169631015 -5.792465508129111 6.628868279275711 -14.995083731211029 99.30770433829841 21.58661778565336 -58.57749909585262 8.12374044613789 39.212957932804876 40.95289079521352 -14.291060329692591 64.36628737178164 -84.03787346943234 -53.73787804799231 20.321493664770074 -45.64195408926523 -89.40426622957926 88.9708999999892 89.09401315065587 -0.06048793915533704 1.861583092484509e-06 -1.9687995580460362e-06 -0.06392147123495345 -5.45734274326412e-06 -1.639633835928935e-07 -89.39480945552563 88.98100215715736 89.08459107277577 -1.157420062188755 9.21380795721078e-07 4.507358381661946e-07 2.575999604379051 -1.8444034067519637e-05 9.92731948532358e-07 -88.85698439390383 89.35789999997904 88.54684448589863 -1.1457794038296756 -3.584507498079465e-06 0.0001820539722478101 1.1457699182226584 6.954636371938537e-06 5.048557523255666e-07 -89.42261569741387 88.94870000002479 89.11231199160811 0.4092849305654511 4.892174412244048e-07 0.000602553930925805 -0.6366014135279568 -3.69369781040455e-06 2.4806123201951393e-07 104.36400020016835 40.50229025606413 -88.82459603770687 -7.669021370328763 0.1861815969295408 -1.3504396651418857 -11.263399999996238 -1.5751055722254734e-05 6.667188073588698e-05 -80.76250067002465 -33.191360890985685 61.64479420591805 39.768028941854126 -51.6141730764368 -15.933707707437401 -36.67396418833328 12.06466441244197 -55.26103340283358 56.903320014479306 -4.48840582327913 11.31894971843854 -91.18733271496971 -87.82889999998778 -89.99883128112573 3.408879805400551 -1.5205823635579656e-06 0.0034197077060728618 -0.9548614753302013 -1.1132445248115644e-06 -1.113791696688181e-05 -91.18751550485312 -89.4015000000168 -89.99900142223964 2.856359485728904 -2.004795539307493e-06 0.002847694715957959 -3.1684404939792197 7.659021794910133e-06 2.4545437984010307e-07 88.8108703064339 -89.71712003179825 89.99940154290414 2.5448097429465615 1.8254232192173076e-05 0.002710543177057506 -2.544820067723036 -1.7001139370008703e-05 -7.096023411841358e-07 -91.18827789522412 -86.197299999982 -89.99978232753415 6.131030414860705 -7.316466635877898e-06 0.006710294943761864 -2.0454197744422906 1.7060484936356162e-06 9.731109605806204e-06 -101.9489999999959 -40.7241999999919 -90.06939999997621 10.017199999999654 -9.049983614631504e-06 9.299000053742819e-07 -2.6697574202653027 5.30284444669548e-06 -3.7498327824948673e-06 -18.52716439911552 13.601792182576368 65.37697262170623 -8.043574118299183 3.020903800161922 -15.507419359176028
1301.2047436055423 -98.94807022065108 89.2060153380913 123.86477060550096 -23.45416741464966 152.156883834032 -101.84548932280912 37.287026874001214 132.4213836967043 59.067809836301365 -18.35199167830347 -186.52161520309377 -132.1448874717512 3.2078693476352487 -34.94021427414791 28.780799999999104 4.506540233008346e-06 5.705750157770269e-06 -122.50076201169807 39.7815143120347 53.82874468707571 -84.07315256243876 -2.115085990384678 -1.678021738901307 11.515286431489272 17.336625002970386 61.98064373148374 28.780797091939363 1.4115972654278477e-05 2.432449950762951e-05 4.2390470148061645 9.204779599763105 -102.00551474492566 8.117980718741677 1.6347538842913576 -15.964676954805139 -3.652497242044764 1.0906674802855167 -16.075155850983375 -25.817601376962592 6.695964865604452 -14.85782410522283 -5.830645143444134 6.678989806600487 -15.048725212010062 98.95823473574043 21.843905946357538 -58.31722448283658 8.755824452947412 39.30936561673503 40.15491745722866 -15.022168423759013 64.2750871830376 -85.01073735480696 -53.32825318874673 20.36622288691835 -45.35702310193867 -89.40426594911857 88.97089999998934 89.09401220538028 -0.06048792851079376 1.851362575235152e-06 -1.9846224764757786e-06 -0.06392145288867157 -5.39238208387453e-06 -1.704481601197198e-07 -89.39481037730441 88.98100141118073 89.08459204645106 -1.157420045946006 9.256600861523009e-07 4.4313548965777787e-07 2.575999598757549 -1.852785374428012e-05 1.0007897877180056e-06 -88.85698707476185 89.3578999999793 88.5468466733772 -1.145779388333619 -3.5883937908967813e-06 0.000182918019843444 1.145769934266255 6.976911542584455e-06 4.910258268156813e-07 -89.42261687392966 88.94870000002446 89.11231309692425 0.4092849238713467 4.695607931960086e-07 0.0006014383681423643 -0.6366014164253945 -3.6155082389132417e-06 2.497817529755666e-07 104.36400019967436 40.50228999543867 -88.82459600779124 -7.669021385854407 0.18618158125858206 -1.3504396233106946 -11.263399999996286 -1.5773721456190528e-05 6.665385776932474e-05 -80.44153724291549 -33.99271253268252 60.83868957080071 39.72033509243566 -51.5914750419204 -15.302669650039135 -38.50856334399934 11.456969062505621 -53.6149345760935 56.51287660992254 -4.683784712753757 11.998734081154756 -91.18733311148054 -87.82889999998793 -89.99883159728739 3.4088798121627306 -1.5170926212952707e-06 0.0034208944952906356 -0.954861550249941 -1.0934477684378898e-06 -1.0992938015046368e-05 -91.18751630162973 -89.40150000001658 -89.99900169888166 2.856359551151741 -2.0285599486430567e-06 0.0028482893550595776 -3.168440490804626 7.715922260508509e-06 2.4602937699385303e-07 88.81086808847171 -89.71711987294617 89.99939962130493 2.5448097312249436 1.8238643047982227e-05 0.0027080198535895743 -2.5448200659829676 -1.6995401059452253e-05 -7.084842784300704e-07 -91.18827764742747 -86.19729999998223 -89.99978209927534 6.131030333770002 -7.3609341389791236e-06 0.006710209947055558 -2.0454197665332057 1.6232905802710176e-06 9.725276914414406e-06 -101.94899999999596 -40.72419999999202 -90.06939999997651 10.017199999999658 -9.113995588117436e-06 8.907077620769821e-07 -2.669757336135665 5.380921045369255e-06 -3.7641649991454356e-06 -18.587976401177272 13.591247906586238 66.041320809241 -7.650997340418405 2.9557543838435274 -15.843773334271818
1310.4630564186762 -97.44147609586445 88.84114678648861 124.32014526651554 -22.486446245260638 152.27086712331226 -102.44666137282537 37.022242314531695 132.45206114637693 59.495075662772805 -18.288160871425667 -186.9280392548553 -132.27245022231176 3.425359031545982 -34.835882697331655 28.78079999999912 4.519232496832935e-06 5.687419850758408e-06 -121.08890114619936 39.58698807051519 54.207841197905864 -84.19076972603443 -2.3411864928364476 -1.6327348891913434 10.941622082083697 17.20628977806537 62.52637748063257 28.780797102375256 1.411940789733025e-05 2.4308506648045876e-05 4.263358309788903 9.231603252734212 -102.03456441371401 8.062169237430972 1.6575848661729728 -16.02366502187127 -3.700740600241103 1.1125332095204947 -16.132643054002706 -25.86424792121216 6.735933870160201 -14.90961152789539 -5.8801523487841445 6.725507987830191 -15.099832095839925 98.62834173921276 22.132995304832335 -57.90955884696786 9.292434974553768 39.42746969449419 39.191708060999915 -15.68790570503025 64.30666476374114 -85.86188965722725 -53.09938478857934 20.31338642424616 -45.17585639302667 -89.40426500926802 88.97089999998953 89.0940106612311 -0.06048792269216587 1.8668762282689127e-06 -1.986876176087155e-06 -0.06392143807869748 -5.341959895347176e-06 -1.7597590818757608e-07 -89.39481234239304 88.98100045522668 89.08459402212533 -1.1574200341856182 9.56811568856186e-07 4.3797645653046e-07 2.5759995952667007 -1.865705870036204e-05 1.0138859572708504e-06 -88.85698780666839 89.35789999997964 88.54684686105199 -1.1457793735323392 -3.557029354588678e-06 0.00018422471443376218 1.1457699506468533 6.959174844350187e-06 4.807708944383622e-07 -89.42261697024453 88.94870000002403 89.1123132001028 0.4092849241937034 4.3978616656958605e-07 0.0005999390862007736 -0.636601421313827 -3.5174897500317973e-06 2.5456942159445884e-07 104.36400019784547 40.50228963307737 -88.82459598147878 -7.669021392644496 0.18618152894073584 -1.3504395976752142 -11.263399999996352 -1.582502334250141e-05 6.665273845446591e-05 -80.02700276732035 -34.89638228450974 60.18637476549921 39.66751782931895 -51.46529410455591 -14.790827379732583 -40.042006997361035 11.009983505674336 -52.10775462378949 56.26668339694237 -4.919525299635347 12.6465922796092 -91.18733394877079 -87.82889999998814 -89.99883231524332 3.4088798192126006 -1.5358790519448787e-06 0.0034231777585268463 -0.954861630462567 -9.934192167813848e-07 -1.072864719819958e-05 -91.18751815096802 -89.40150000001628 -89.99900271345129 2.8563596187583604 -2.042136344160824e-06 0.002848730002042282 -3.1684404896868177 7.751423425901272e-06 2.430297193155174e-07 88.81086721712379 -89.7171197051936 89.99939952194988 2.5448097199588835 1.822578694961348e-05 0.0027025598070743065 -2.5448200642195578 -1.6963770408099152e-05 -7.121953623483933e-07 -91.18827734552433 -86.19729999998255 -89.9997818391336 6.131030262022115 -7.4060916763996725e-06 0.006709813314597388 -2.0454197934459697 1.5630869377373897e-06 9.750246642552566e-06 -101.94899999999603 -40.724199999992166 -90.06939999997691 10.017199999999665 -9.176371094872742e-06 8.365863813745353e-07 -2.6697572303792714 5.476209526489636e-06 -3.761036983380391e-06 -18.852286230278487 13.61467586112307 66.74677747877934 -7.229515529045042 2.8842828649627847 -16.15147084339991
1319.6496072872212 -95.85008361298783 88.25937718732845 125.18456445656709 -21.778620880733715 152.2298886054922 -102.98934814927205 36.69494280103213 132.61314614117902 59.82596343606542 -18.340908789384258 -187.41058445928053 -132.20677573915395 3.6403404129449335 -34.679706490229044 28.780799999999143 4.540701543299199e-06 5.645757199582e-06 -119.45799214272574 39.29753324379916 54.50981824843135 -84.31908149986612 -2.5135154089798393 -1.571225618007551 10.338554561004301 17.05146719143326 63.034530384087766 28.780797126790283 1.4111143705945124e-05 2.4285700599745023e-05 4.279515223155075 9.264318443087843 -102.07065968952443 7.996234758913254 1.6654589095509502 -16.077940944262046 -3.7547858569097374 1.1244525043418307 -16.18687030933647 -25.916424149395354 6.767177395025978 -14.96483215182604 -5.941935841914287 6.762690956706649 -15.153094312128975 98.34446759885202 22.477132409950073 -57.313919233140396 9.562705604505124 39.60534843747506 37.96066697615697 -16.251643444950254 64.52743704060293 -86.48213661304844 -53.185486072263394 20.101068919262403 -45.211610428483304 -89.40426311386524 88.9708999999898 89.09400820515064 -0.06048792388576337 1.915726660218294e-06 -1.9761270206048897e-06 -0.06392142753236452 -5.304360097549945e-06 -1.803190194922353e-07 -89.39481588224032 88.98099921716998 89.08459758102765 -1.1574200266046135 1.015801274524309e-06 4.369204669372122e-07 2.5759995960826316 -1.8836973668314947e-05 1.0330396369836031e-06 -88.85698596754887 89.35789999998013 88.54684432280665 -1.1457793599688957 -3.4758784002464536e-06 0.00018615140237737135 1.1457699695048722 6.8907371567252114e-06 4.7515392667974835e-07 -89.42261572844001 88.94870000002342 89.1123120702028 0.40928493296231344 3.9933096920118783e-07 0.0005979936895283507 -0.6366014304062502 -3.3925083171118097e-06 2.6393017457853574e-07 104.36400019391462 40.50228913688791 -88.82459596122489 -7.669021388924394 0.18618142528472031 -1.3504395884536824 -11.263399999996446 -1.5899480417005285e-05 6.66739389023524e-05 -79.41955681852667 -35.937742218719585 59.835884549194255 39.57964997961976 -51.27062237306983 -14.441021530469907 -41.207082944211656 10.820422003093322 -50.858157793560686 56.21418425688758 -5.218592326838413 13.258526783918773 -91.18733546998087 -87.82889999998844 -89.99883367008624 3.408879826831002 -1.5780103719771e-06 0.0034270796529660033 -0.9548617180903824 -7.823746464791806e-07 -1.0300248205008041e-05 -91.18752179477478 -89.40150000001586 -89.99900515707711 2.8563596887283085 -2.0387695606944116e-06 0.00284903964228741 -3.1684404911651183 7.754442314390637e-06 2.3421509251429636e-07 88.81086888598725 -89.71711956284095 89.99940266934799 2.5448097093564495 1.8212724109421944e-05 0.002693051174128613 -2.5448200632127387 -1.689771137368866e-05 -7.225046024613685e-07 -91.18827693853999 -86.19729999998297 -89.99978150889635 6.131030199852311 -7.4534984437738945e-06 0.006708960992794022 -2.0454198693047467 1.5394119953505283e-06 9.810550388359945e-06 -101.94899999999613 -40.72419999999237 -90.06939999997748 10.017199999999674 -9.230273450092039e-06 7.609346217534929e-07 -2.66975710042432 5.594812992540923e-06 -3.73411140752678e-06 -19.39532624567837 13.688428113803118 67.46815965648506 -6.742527389298721 2.81341187303432 -16.420674687662608
